# xmcd
#
# Track frame offsets:
#	150
#	18037
#	34001
#	46983
#	63397
#	79672
#	94315
#	114038
#	127200
#	145677
#	156907
#	173082
#	185731
#	202662
#	213988
#	231960
#
# Disc length: 3303 seconds
#
# Revision: 0
# Processed by: cddbd v1.5.2PL0 Copyright (c) Steve Scherf et al.
# Submitted via: audiograbber 1.83.01
#
DISCID=d00ce510
DTITLE=Hard Pushin' Papa - Hard Pushin' Papa
DYEAR=2009
DGENRE=Blues
TTITLE0=Greasy Greens
TTITLE1=Juanita Stomp
TTITLE2=Baby Surely Do
TTITLE3=Stinky Woman Blues
TTITLE4=Saturday Night In Jail 
TTITLE5=Gentlemen Be Wise 
TTITLE6=Sweet Baby Swing 
TTITLE7=Buddy Bolden's Blues 
TTITLE8=Someday Baby 
TTITLE9=Corrina, Corrina
TTITLE10=Divin' Duck Blues
TTITLE11=Pitchin' Day 
TTITLE12=Pack Up My Things 
TTITLE13=PC Blues 
TTITLE14=If I Had Possession Over Judgement Day
TTITLE15=Why Are You So Mean ?
EXTD=
EXTT0=
EXTT1=
EXTT2=
EXTT3=
EXTT4=
EXTT5=
EXTT6=
EXTT7=
EXTT8=
EXTT9=
EXTT10=
EXTT11=
EXTT12=
EXTT13=
EXTT14=
EXTT15=
PLAYORDER=
